<?xml version="1.0" encoding="UTF-8"?>
<svg width="34px" height="34px" viewBox="0 0 34 34" version="1.1" xmlns="http://www.w3.org/2000/svg" xmlns:xlink="http://www.w3.org/1999/xlink">
    <!-- Generator: Sketch 43.1 (39012) - http://www.bohemiancoding.com/sketch -->
    <title>Urgent</title>
    <desc>Created with Sketch.</desc>
    <defs></defs>
    <g id="filter-gadget" stroke="none" stroke-width="1" fill="none" fill-rule="evenodd">
        <g id="Urgent" fill="#F76B5E">
            <path d="M17,34 C14.6979052,34 12.4982201,33.5489954 10.4008789,32.6469727 C8.30353769,31.7449499 6.49675237,30.5358149 4.98046875,29.0195312 C3.46418513,27.5032476 2.25505008,25.6964623 1.35302734,23.5991211 C0.451004604,21.5017799 0,19.3020948 0,17 C0,14.6979052 0.451004604,12.4982201 1.35302734,10.4008789 C2.25505008,8.30353769 3.46418513,6.49675237 4.98046875,4.98046875 C6.49675237,3.46418513 8.30353769,2.25505008 10.4008789,1.35302734 C12.4982201,0.451004604 14.6979052,0 17,0 C19.3020948,0 21.5017799,0.451004604 23.5991211,1.35302734 C25.6964623,2.25505008 27.5032476,3.46418513 29.0195312,4.98046875 C30.5358149,6.49675237 31.7449499,8.30353769 32.6469727,10.4008789 C33.5489954,12.4982201 34,14.6979052 34,17 C34,19.3020948 33.5489954,21.5017799 32.6469727,23.5991211 C31.7449499,25.6964623 30.5358149,27.5032476 29.0195312,29.0195312 C27.5032476,30.5358149 25.6964623,31.7449499 23.5991211,32.6469727 C21.5017799,33.5489954 19.3020948,34 17,34 Z M19.125,8.5 L14.875,8.5 L14.875,19.125 L19.125,19.125 L19.125,8.5 Z M19.125,21.25 L14.875,21.25 L14.875,25.5 L19.125,25.5 L19.125,21.25 Z" id="error"></path>
        </g>
    </g>
</svg>