<?xml version="1.0" encoding="UTF-8"?>
<svg width="34px" height="34px" viewBox="0 0 34 34" version="1.1" xmlns="http://www.w3.org/2000/svg" xmlns:xlink="http://www.w3.org/1999/xlink">
    <!-- Generator: Sketch 43.1 (39012) - http://www.bohemiancoding.com/sketch -->
    <title>Success</title>
    <desc>Created with Sketch.</desc>
    <defs></defs>
    <g id="filter-gadget" stroke="none" stroke-width="1" fill="none" fill-rule="evenodd">
        <g id="Success" fill="#67AB49">
            <path d="M17,34 C14.6979052,34 12.4982201,33.5489954 10.4008789,32.6469727 C8.30353769,31.7449499 6.49675237,30.5358149 4.98046875,29.0195312 C3.46418513,27.5032476 2.25505008,25.6964623 1.35302734,23.5991211 C0.451004604,21.5017799 0,19.3020948 0,17 C0,14.6979052 0.451004604,12.4982201 1.35302734,10.4008789 C2.25505008,8.30353769 3.46418513,6.49675237 4.98046875,4.98046875 C6.49675237,3.46418513 8.30353769,2.25505008 10.4008789,1.35302734 C12.4982201,0.451004604 14.6979052,0 17,0 C19.3020948,0 21.5017799,0.451004604 23.5991211,1.35302734 C25.6964623,2.25505008 27.5032476,3.46418513 29.0195312,4.98046875 C30.5358149,6.49675237 31.7449499,8.30353769 32.6469727,10.4008789 C33.5489954,12.4982201 34,14.6979052 34,17 C34,19.3020948 33.5489954,21.5017799 32.6469727,23.5991211 C31.7449499,25.6964623 30.5358149,27.5032476 29.0195312,29.0195312 C27.5032476,30.5358149 25.6964623,31.7449499 23.5991211,32.6469727 C21.5017799,33.5489954 19.3020948,34 17,34 Z M23.1591797,10.7246094 C22.9710277,10.7246094 22.7994799,10.7799474 22.6445312,10.890625 L15.0742188,18.5273438 C14.9414056,18.6601569 14.7809254,18.7265625 14.5927734,18.7265625 C14.4046215,18.7265625 14.2441413,18.6601569 14.1113281,18.5273438 L11.3554688,15.7714844 C11.2226556,15.6165357 11.0566416,15.5390625 10.8574219,15.5390625 C10.6582021,15.5390625 10.5032558,15.6165357 10.3925781,15.7714844 L8.66601562,17.4648438 C8.55533799,17.5976569 8.5,17.7581371 8.5,17.9462891 C8.5,18.134441 8.55533799,18.2949212 8.66601562,18.4277344 L13.015625,22.8105469 C13.1373704,22.9322923 13.3116851,23.0402014 13.5385742,23.1342773 C13.7654634,23.2283533 13.9785146,23.2753906 14.1777344,23.2753906 L14.9746094,23.2753906 C15.3509133,23.2753906 15.7382793,23.1204443 16.1367188,22.8105469 L25.3339844,13.546875 C25.444662,13.4361974 25.5,13.2867848 25.5,13.0986328 C25.5,12.9104808 25.444662,12.7389331 25.3339844,12.5839844 L23.6074219,10.890625 C23.4967442,10.7799474 23.3473317,10.7246094 23.1591797,10.7246094 Z" id="approve"></path>
        </g>
    </g>
</svg>
